# xmcd CD database file
#
# Track frame offsets:
#	150
#	18616
#	36923
#	56337
#	74425
#	95393
#	109866
#	118244
#	134431
#	151588
#	187875
#	200005
#	218007
#	235341
#	246922
#	262216
#	278100
#	295774
#	315858
#	323974
#
# Disc length: 4506 seconds
#
# Revision: 1
# Processed by: cddbd v1.5.1PL0 Copyright (c) Steve Scherf et al.
# Submitted via: CDex 1.50
#
DISCID=29119814
DTITLE=Janis Joplin - Greatest Hits - MTV History 2000
DYEAR=1999
DGENRE=Rock
TTITLE0=Summertime
TTITLE1=Cry Baby
TTITLE2=Piece Of My Heart
TTITLE3=Try
TTITLE4=Me And Bobby McGee
TTITLE5=Down On Me
TTITLE6=Mercedes Benz
TTITLE7=A Woman Left Lonely
TTITLE8=Move Over
TTITLE9=Ball And Chain
TTITLE10=Bye, Bye Baby
TTITLE11=Half Moon
TTITLE12=My Baby
TTITLE13=Buried Alive In The Blues
TTITLE14=Trust Me
TTITLE15=Get It While You Can
TTITLE16=Little Girl Blues
TTITLE17=Time
TTITLE18=My Own Tears
TTITLE19=Come Back
EXTD=YEAR: 1999
EXTT0=
EXTT1=
EXTT2=
EXTT3=
EXTT4=
EXTT5=
EXTT6=
EXTT7=
EXTT8=
EXTT9=
EXTT10=
EXTT11=
EXTT12=
EXTT13=
EXTT14=
EXTT15=
EXTT16=
EXTT17=
EXTT18=
EXTT19=
PLAYORDER=
